<svg width="20" height="20" viewBox="0 0 20 20" fill="none" xmlns="http://www.w3.org/2000/svg">
<path fill-rule="evenodd" clip-rule="evenodd" d="M5.57926 14.3699C4.02954 13.546 2.75065 12.2817 1.9102 10.7448C1.58515 10.1504 1.58515 9.43194 1.91021 8.83757C3.43181 6.05531 6.39043 4.16626 9.79139 4.16626C11.5059 4.16626 13.108 4.64635 14.4702 5.47895L12.1767 7.77248C11.6035 7.096 10.7476 6.66659 9.79149 6.66659C8.0656 6.66659 6.66649 8.0657 6.66649 9.79159C6.66649 10.7477 7.0959 11.6036 7.77239 12.1768L5.57926 14.3699ZM6.80783 14.9091C7.74123 15.2376 8.74541 15.4163 9.79144 15.4163C13.1924 15.4163 16.151 13.5272 17.6726 10.745C17.9977 10.1506 17.9977 9.43208 17.6726 8.8377C17.1218 7.83051 16.3827 6.94036 15.5025 6.21451L12.7941 8.92282C12.8738 9.19863 12.9165 9.49012 12.9165 9.79159C12.9165 11.5175 11.5174 12.9166 9.79149 12.9166C9.49003 12.9166 9.19853 12.8739 8.92272 12.7942L6.80783 14.9091ZM9.79149 9.79159L8.47021 11.1219C8.12823 10.7823 7.91649 10.3117 7.91649 9.79159C7.91649 8.75605 8.75596 7.91659 9.79149 7.91659C10.2185 7.91659 10.6122 8.05935 10.9275 8.29976L9.79149 9.79159Z" fill="#92949A"/>
<path d="M15.8333 3.33362L3.33325 15.8336" stroke="#92949A" stroke-width="1.25" stroke-linecap="round" stroke-linejoin="round"/>
</svg>
