<svg width="9" height="20" viewBox="0 0 9 20" fill="none" xmlns="http://www.w3.org/2000/svg">
<path fill-rule="evenodd" clip-rule="evenodd" d="M6.49098 4.45501C6.49098 5.07501 5.98398 5.57601 5.35898 5.57601C5.06026 5.57734 4.77322 5.46001 4.56096 5.24981C4.3487 5.03961 4.22857 4.75373 4.22698 4.45501C4.22698 3.83501 4.73398 3.33301 5.35898 3.33301C5.98398 3.33301 6.49098 3.83501 6.49098 4.45501ZM4.63898 11.897L5.71598 13.61L6.11598 16.12C6.21398 16.492 6.58398 16.72 6.97998 16.621C7.35498 16.529 7.57198 16.195 7.46598 15.729L7.01498 12.891L5.39798 10.416C5.39798 10.416 5.26798 10.261 5.32198 10.02L5.63698 8.06001C5.63698 8.06001 6.10398 8.98701 6.30698 9.10301L7.33498 9.85101C7.53898 10.053 7.94898 10.181 8.16298 9.99101C8.41298 9.76801 8.37998 9.40101 8.12598 9.14101L6.93998 8.27601L5.89098 6.27601C5.89098 6.27601 5.07398 5.44401 3.81898 5.90501L1.65998 7.38301C1.65998 7.38301 1.42198 7.51701 1.35798 7.91901L0.835983 9.97001C0.805983 10.27 1.08098 10.555 1.41698 10.552C1.75298 10.549 1.94898 10.292 2.01298 9.94601L2.41798 8.29401L3.40398 7.47701L3.00698 9.65301C3.00698 9.65301 2.91798 9.93701 3.04998 10.416C3.04998 10.416 3.18998 10.76 3.14998 10.974L2.48198 13.299L0.948983 15.725C0.762983 16.107 1.04298 16.535 1.44698 16.642C1.85098 16.749 2.13698 16.499 2.38098 16.102L3.88098 13.922L4.63898 11.897Z" fill="#92949A"/>
</svg>
