<svg width="47" height="45" viewBox="0 0 47 45" fill="none" xmlns="http://www.w3.org/2000/svg">
<path d="M0.268239 44V0.494544H5.53648V22.0773H6.04631L25.5898 0.494544H32.4725L14.2036 20.123L32.4725 44H26.0996L10.9747 23.7768L5.53648 29.8947V44H0.268239Z" fill="#4CB164"/>
<path d="M42.2654 44.3399C41.2175 44.3399 40.3182 43.9646 39.5676 43.214C38.817 42.4634 38.4417 41.5641 38.4417 40.5162C38.4417 39.4682 38.817 38.5689 39.5676 37.8183C40.3182 37.0677 41.2175 36.6924 42.2654 36.6924C43.3134 36.6924 44.2127 37.0677 44.9633 37.8183C45.7139 38.5689 46.0892 39.4682 46.0892 40.5162C46.0892 41.2101 45.9121 41.8474 45.5581 42.428C45.2182 43.0087 44.7579 43.476 44.1773 43.8301C43.6108 44.1699 42.9735 44.3399 42.2654 44.3399Z" fill="#35669A"/>
</svg>
