<svg width="22" height="22" viewBox="0 0 22 22" fill="none" xmlns="http://www.w3.org/2000/svg">
<path d="M1.23835 19.0292L0.531204 18.7793H0.531204L1.23835 19.0292ZM2.7696 20.5605L3.01948 21.2676H3.01948L2.7696 20.5605ZM5.2926 19.6689L5.54247 20.3761L5.2926 19.6689ZM6.15794 19.7516L5.79426 20.4076L6.15794 19.7516ZM2.16691 16.4014L2.87406 16.6513L2.16691 16.4014ZM1.75 11C1.75 5.89137 5.89137 1.75 11 1.75V0.25C5.06294 0.25 0.25 5.06294 0.25 11H1.75ZM2.76771 15.2227C2.11739 13.9576 1.75 12.5228 1.75 11H0.25C0.25 12.7668 0.676828 14.4362 1.43365 15.9084L2.76771 15.2227ZM1.9455 19.2791L2.87406 16.6513L1.45976 16.1515L0.531204 18.7793L1.9455 19.2791ZM2.51972 19.8533C2.16305 19.9793 1.81947 19.6358 1.94551 19.2791L0.531204 18.7793C-0.0149431 20.3249 1.47388 21.8138 3.01948 21.2676L2.51972 19.8533ZM5.04272 18.9618L2.51972 19.8533L3.01948 21.2676L5.54247 20.3761L5.04272 18.9618ZM11 20.25C9.37385 20.25 7.84781 19.831 6.52162 19.0957L5.79426 20.4076C7.33732 21.2631 9.11293 21.75 11 21.75V20.25ZM20.25 11C20.25 16.1086 16.1086 20.25 11 20.25V21.75C16.9371 21.75 21.75 16.9371 21.75 11H20.25ZM11 1.75C16.1086 1.75 20.25 5.89137 20.25 11H21.75C21.75 5.06294 16.9371 0.25 11 0.25V1.75ZM5.54247 20.3761C5.60797 20.353 5.69984 20.3552 5.79426 20.4076L6.52162 19.0957C6.086 18.8542 5.54865 18.783 5.04272 18.9618L5.54247 20.3761ZM1.43365 15.9084C1.48101 16.0006 1.48203 16.0885 1.45976 16.1515L2.87406 16.6513C3.04592 16.1649 2.98675 15.6488 2.76771 15.2227L1.43365 15.9084Z" fill="#383838"/>
<circle cx="6.05078" cy="11.0498" r="1.25" fill="#383838"/>
<circle cx="11.0508" cy="11.0498" r="1.25" fill="#383838"/>
<circle cx="16.0508" cy="11.0498" r="1.25" fill="#383838"/>
</svg>
