<svg width="20" height="20" viewBox="0 0 20 20" fill="none" xmlns="http://www.w3.org/2000/svg">
<path d="M9.04802 1.693C9.47987 0.975421 10.5202 0.975419 10.952 1.693L12.6832 4.56954C12.8383 4.82733 13.0914 5.01119 13.3845 5.07908L16.6552 5.83658C17.4711 6.02554 17.7926 7.01496 17.2436 7.64741L15.0428 10.1827C14.8455 10.4099 14.7489 10.7074 14.7749 11.0072L15.0652 14.3519C15.1376 15.1862 14.2959 15.7977 13.5248 15.471L10.4335 14.1614C10.1564 14.044 9.84364 14.044 9.5666 14.1614L6.47529 15.471C5.70414 15.7977 4.8625 15.1862 4.93491 14.3519L5.22519 11.0072C5.2512 10.7074 5.15454 10.4099 4.95731 10.1827L2.7565 7.64741C2.20749 7.01495 2.52897 6.02554 3.34487 5.83658L6.61558 5.07908C6.9087 5.01119 7.16175 4.82734 7.31689 4.56954L9.04802 1.693Z" fill="#EBC70B"/>
</svg>
