<svg width="28" height="28" viewBox="0 0 28 28" fill="none" xmlns="http://www.w3.org/2000/svg">
<circle cx="14" cy="14" r="14" fill="#92949A"/>
<path d="M19.8049 8.1875C18.3937 6.78125 16.5122 6 14.5261 6C10.3972 6 7.05226 9.33333 7.05226 13.4479C7.05226 14.75 7.41812 16.0521 8.0453 17.1458L7 21L10.9721 19.9583C12.0697 20.5312 13.2718 20.8438 14.5261 20.8438C18.6551 20.8438 22 17.5104 22 13.3958C21.9477 11.4688 21.216 9.59375 19.8049 8.1875ZM18.1324 16.1042C17.9756 16.5208 17.2439 16.9375 16.878 16.9896C16.5645 17.0417 16.1463 17.0417 15.7282 16.9375C15.4669 16.8333 15.101 16.7292 14.6829 16.5208C12.8014 15.7396 11.5993 13.8646 11.4948 13.7083C11.3902 13.6042 10.7108 12.7187 10.7108 11.7812C10.7108 10.8437 11.1812 10.4271 11.338 10.2187C11.4948 10.0104 11.7038 10.0104 11.8606 10.0104C11.9652 10.0104 12.1219 10.0104 12.2265 10.0104C12.331 10.0104 12.4878 9.95833 12.6446 10.3229C12.8014 10.6875 13.1672 11.625 13.2195 11.6771C13.2718 11.7812 13.2718 11.8854 13.2195 11.9896C13.1672 12.0938 13.115 12.1979 13.0105 12.3021C12.9059 12.4062 12.8014 12.5625 12.7491 12.6146C12.6446 12.7187 12.5401 12.8229 12.6446 12.9792C12.7491 13.1875 13.115 13.7604 13.6899 14.2812C14.4216 14.9062 14.9965 15.1146 15.2056 15.2188C15.4146 15.3229 15.5192 15.2708 15.6237 15.1667C15.7282 15.0625 16.0941 14.6458 16.1986 14.4375C16.3031 14.2292 16.4599 14.2812 16.6167 14.3333C16.7735 14.3854 17.7143 14.8542 17.8711 14.9583C18.0801 15.0625 18.1847 15.1146 18.2369 15.1667C18.2892 15.3229 18.2892 15.6875 18.1324 16.1042Z" fill="white"/>
</svg>
